# xmcd
#
# Track frame offsets:
#	182
#	17080
#	32127
#	57510
#	71310
#	85582
#	103985
#	116160
#	123712
#	129940
#	137167
#	159450
#	170987
#	184732
#	197965
#	210852
#	219270
#	232175
# Disc length: 3296 seconds
# Revision: 1
# Processed by: cddbd v1.5.1PL2 Copyright (c) Steve Scherf et al.
#
# Submitted via: libkcddb 0.3
#
DISCID=0b0cde12
DTITLE=Traditionnel - Noël !
DYEAR=1993
DGENRE=France
TTITLE0=Mezz Mezzrow - Claude Luter - Jingle bells
TTITLE1=Piste 02
TTITLE2=Piste 03
TTITLE3=Piste 04
TTITLE4=Piste 05
TTITLE5=Piste 06
TTITLE6=Piste 07
TTITLE7=Piste 08
TTITLE8=Piste 09
TTITLE9=Piste 10
TTITLE10=Piste 11
TTITLE11=Piste 12
TTITLE12=Piste 13
TTITLE13=Piste 14
TTITLE14=Piste 15
TTITLE15=Piste 16
TTITLE16=Piste 17
TTITLE17=Piste 18
EXTD=CD2
EXTT0=
EXTT1=
EXTT2=
EXTT3=
EXTT4=
EXTT5=
EXTT6=
EXTT7=
EXTT8=
EXTT9=
EXTT10=
EXTT11=
EXTT12=
EXTT13=
EXTT14=
EXTT15=
EXTT16=
EXTT17=
PLAYORDER=
